<svg width="23" height="25" viewBox="0 0 23 25" fill="none" xmlns="http://www.w3.org/2000/svg">
<path id="path98" d="M6.52987 19.2626C3.45889 16.7698 0.913161 13.4259 0.132663 9.54852C-0.0522265 8.62978 -0.114387 7.59942 0.42349 6.83219C1.11653 5.84381 2.54169 5.68307 3.7181 5.95427C7.14001 6.74271 9.26072 10.0711 11.0121 13.1146C10.8755 10.9139 10.741 8.68235 11.1843 6.52248C11.6277 4.36261 12.7251 2.24541 14.5749 1.04486C16.4247 -0.155678 19.094 -0.208256 20.7144 1.28746C22.6652 3.08782 22.4595 6.28796 21.3597 8.70426C20.0506 11.5799 17.7694 13.901 16.2319 16.6614C15.5782 17.8352 15.086 19.1357 14.8867 20.4664C14.711 21.6425 15.2032 23.1875 14.6976 24.1538C11.8269 23.1968 8.87115 21.1651 6.52987 19.2626Z" fill="#616161"/>
</svg>
